<svg width="20" height="20" viewBox="0 0 20 20" fill="none" xmlns="http://www.w3.org/2000/svg">
<path fill-rule="evenodd" clip-rule="evenodd" d="M18.9863 17C18.9863 17.5523 18.5389 18 17.987 18V19C17.987 19.5523 17.5397 20 16.9878 20H15.9885C15.4366 20 14.9892 19.5523 14.9892 19V18H4.9964V19C4.9964 19.5523 4.549 20 3.99712 20H2.99784C2.44596 20 1.99856 19.5523 1.99856 19V18C1.44668 18 0.99928 17.5523 0.99928 17V10C0.447398 10 0 9.5523 0 9V6C0 5.44772 0.447398 5 0.99928 5V1C0.99928 0.44772 1.44668 0 1.99856 0H17.987C18.5389 0 18.9863 0.44772 18.9863 1V5C19.5382 5 19.9856 5.44772 19.9856 6V9C19.9856 9.5523 19.5382 10 18.9863 10V17ZM16.9878 2H2.99784V10H16.9878V2ZM6.99496 13.5C6.99496 14.3284 6.32387 15 5.49604 15C4.66821 15 3.99712 14.3284 3.99712 13.5C3.99712 12.6716 4.66821 12 5.49604 12C6.32387 12 6.99496 12.6716 6.99496 13.5ZM14.4896 15C15.3174 15 15.9885 14.3284 15.9885 13.5C15.9885 12.6716 15.3174 12 14.4896 12C13.6617 12 12.9906 12.6716 12.9906 13.5C12.9906 14.3284 13.6617 15 14.4896 15Z" fill="white"/>
</svg>
