<svg width="19" height="18" viewBox="0 0 19 18" fill="none" xmlns="http://www.w3.org/2000/svg">
<path d="M14.1506 16.0286L15.4107 14.7676C15.4857 14.6926 15.5307 14.5725 15.4857 14.4974L13.8806 6.55631C13.8356 6.43621 13.8806 6.36116 13.9556 6.2861L17.5558 2.68332C18.1708 2.06784 18.1708 1.07708 17.5558 0.461606C16.9407 -0.153869 15.9507 -0.153869 15.3356 0.461606L11.6155 4.18448C11.5405 4.25954 11.4655 4.30457 11.3454 4.25954L3.29003 2.75838C3.17003 2.75838 3.09502 2.75838 3.02002 2.83344L1.71495 4.16947C1.56494 4.31958 1.59494 4.58979 1.78995 4.66485L7.88027 7.35192C8.07528 7.42698 8.10528 7.69719 7.95527 7.8473L4.01007 11.7953C3.93506 11.8704 3.81506 11.9154 3.74005 11.8704L1.12992 11.33C1.00992 11.285 0.934912 11.33 0.859908 11.405L0.0948693 12.1706C-0.0551384 12.3208 -0.025137 12.5609 0.169873 12.666L2.78001 13.927C2.78001 13.972 2.82501 13.972 2.85501 14.0021L3.96507 15.1129C4.01007 15.1579 4.01007 15.1579 4.01007 15.188L5.34514 17.83C5.42014 18.0252 5.69015 18.0552 5.84016 17.9051L6.48519 17.2596C6.5602 17.1845 6.6052 17.0644 6.5602 16.9894L6.02017 14.3473C5.97517 14.2272 6.02017 14.1522 6.09517 14.0771L10.2804 9.88888C10.4304 9.73876 10.6704 9.76879 10.7754 9.96394L13.6556 15.9085C13.7606 16.1487 14.0006 16.1787 14.1506 16.0286Z" fill="white"/>
</svg>
