<svg width="19" height="20" viewBox="0 0 19 20" fill="none" xmlns="http://www.w3.org/2000/svg">
<path d="M17.6116 10.3539C17.0517 9.9346 16.3757 9.75114 15.6929 9.75114H9.20157C8.95803 9.75114 8.70994 9.74161 8.4664 9.75114C8.43682 9.75114 8.40723 9.75352 8.37764 9.75829C7.87235 9.81785 7.42852 10.2157 7.30334 10.7351C7.25554 10.9329 7.26237 11.1282 7.26237 11.3284V14.135H1.36968V8.82434C1.36968 8.35974 1.37878 7.89276 1.36968 7.42579C1.36968 7.41864 1.36968 7.41388 1.36968 7.40673C1.36968 7.03267 1.05558 6.67529 0.686862 6.69197C0.315865 6.70865 0.00404631 7.00646 0.00404631 7.40673V17.5206C0.00404631 17.9852 -0.00505789 18.4522 0.00404631 18.9167C0.00404631 18.9239 0.00404631 18.931 0.00404631 18.9358C0.00404631 19.3099 0.318141 19.6672 0.686862 19.6506C1.05786 19.6339 1.36968 19.3361 1.36968 18.9358V15.5645H17.4568C17.5114 15.5645 17.5661 15.5645 17.6207 15.5645V18.9477C17.6207 19.3218 17.9348 19.6792 18.3035 19.6625C18.6745 19.6458 18.9863 19.348 18.9863 18.9477V13.0962C18.9795 11.9955 18.4605 10.9901 17.6116 10.3539Z" fill="white"/>
<path d="M6.12894 11.6258C6.11524 10.8334 5.63805 10.1552 4.92798 9.88391C4.26128 9.62692 3.45075 9.8625 2.99868 10.4288C2.51692 11.0332 2.42331 11.8994 2.81602 12.5824C3.20873 13.2701 3.97588 13.6008 4.72249 13.4509C5.53074 13.2867 6.10839 12.5062 6.13122 11.6662C6.13122 11.6567 6.13122 11.6472 6.13122 11.6353C6.12894 11.6353 6.12894 11.6305 6.12894 11.6258Z" fill="white"/>
<path d="M12.7207 2.96776C12.6618 3.0275 12.6029 3.08964 12.544 3.14938C12.1882 3.51502 11.8346 3.88306 11.481 4.2487C11.5762 4.82943 11.6692 5.40776 11.7643 5.98849C11.7961 6.18446 11.7553 6.36608 11.6012 6.49035C11.4516 6.61223 11.2612 6.61701 11.098 6.5262C11.0232 6.48557 10.9507 6.44256 10.8782 6.40193C10.4499 6.16295 10.0192 5.92875 9.5909 5.68737C9.0855 5.96698 8.58237 6.24659 8.07924 6.5262C7.91379 6.61701 7.72342 6.60984 7.5761 6.48796C7.42199 6.3613 7.3812 6.17968 7.41293 5.9861C7.42652 5.90007 7.44012 5.81403 7.45599 5.728C7.53531 5.23331 7.6169 4.741 7.69622 4.24631C7.69169 4.24153 7.68716 4.23675 7.68262 4.23197C7.27468 3.80897 6.869 3.38597 6.46105 2.96537C6.34547 2.84587 6.30241 2.66425 6.34547 2.49935C6.384 2.35357 6.51091 2.18867 6.66276 2.16478C6.74208 2.15283 6.82367 2.14088 6.90299 2.12893C7.40386 2.05245 7.90473 1.97598 8.40559 1.89712C8.41239 1.88278 8.41919 1.87083 8.42599 1.85649C8.68435 1.314 8.94272 0.771509 9.20109 0.231409C9.24415 0.140596 9.3144 0.0784606 9.39599 0.0402234C9.52971 -0.0195222 9.69515 -0.0123527 9.82207 0.059342C9.8742 0.0880198 9.91499 0.126257 9.94672 0.169274C9.94899 0.174053 9.95352 0.176443 9.95579 0.181223C9.95805 0.183613 9.96032 0.188392 9.96258 0.190782C9.97165 0.202731 9.97845 0.21707 9.98525 0.231409C9.99205 0.245748 9.99885 0.260087 10.0056 0.274426C10.0351 0.336561 10.0646 0.401087 10.0963 0.463222C10.3229 0.941186 10.5496 1.41915 10.7762 1.89712C10.7989 1.89951 10.8193 1.90428 10.8419 1.90667C11.404 1.99271 11.9638 2.07874 12.5258 2.16478C12.6754 2.18867 12.8046 2.35357 12.8431 2.49935C12.8794 2.66425 12.8363 2.84826 12.7207 2.96776Z" fill="white"/>
</svg>
