<svg width="111" height="35" viewBox="0 0 111 35" fill="none" xmlns="http://www.w3.org/2000/svg">
<path d="M13.7473 1.97054C13.7443 1.60667 13.8854 1.25664 14.1391 0.997992C14.3897 0.744252 14.7334 0.606612 15.0883 0.617822C15.4422 0.612196 15.7838 0.749001 16.0375 0.997992C16.2971 1.25272 16.4392 1.60538 16.4294 1.97054V8.76432C16.4294 13.2707 12.8077 16.9239 8.34021 16.9239C3.8727 16.9239 0.25102 13.2707 0.25102 8.76432V1.97255C0.248128 1.60868 0.389158 1.25865 0.64291 1C0.896611 0.751013 1.23818 0.614208 1.59211 0.619834C1.95016 0.611783 2.29592 0.751715 2.54917 1.00717C2.80241 1.26262 2.94114 1.61138 2.93315 1.97255V8.76432C2.97326 11.7397 5.37582 14.1304 8.32575 14.1304C11.2757 14.1304 13.6782 11.7397 13.7183 8.76432V1.97255L13.7473 1.97054Z" fill="#011627"/>
<path d="M35.4388 15.6908C35.4412 18.6789 33.823 21.4289 31.2214 22.858C28.6198 24.287 25.4517 24.1661 22.9646 22.5429C21.6469 21.6911 20.6091 20.4644 19.9824 19.0178C19.8295 18.6929 19.8186 18.3182 19.9525 17.9849C20.0739 17.6437 20.3303 17.3687 20.6604 17.2255C20.9826 17.0718 21.3538 17.0609 21.6844 17.1954C22.0226 17.3179 22.2952 17.5765 22.4371 17.9095C23.3077 19.8741 25.2451 21.136 27.3786 21.1278C30.3555 21.1239 32.7678 18.6906 32.7717 15.6878V14.8369C29.5721 17.7314 24.6858 17.5912 21.6544 14.5181C20.1022 13.0177 19.2401 10.9326 19.2755 8.76426V1.9725C19.2725 1.60862 19.4136 1.25859 19.6673 0.999945C19.921 0.750954 20.2626 0.614149 20.6165 0.619776C20.9746 0.611725 21.3203 0.751656 21.5736 1.00711C21.8268 1.26256 21.9655 1.61132 21.9576 1.9725V8.76426C21.9977 11.7396 24.4002 14.1303 27.3501 14.1303C30.3001 14.1303 32.7026 11.7396 32.7427 8.76426V1.9725C32.7398 1.60862 32.8808 1.25859 33.1346 0.999945C33.3852 0.746205 33.7289 0.608565 34.0838 0.619776C34.4377 0.614149 34.7793 0.750954 35.033 0.999945C35.2926 1.25468 35.4346 1.60733 35.4248 1.9725V15.6938L35.4388 15.6908Z" fill="#011627"/>
<path d="M51.648 2.98797C48.5276 -0.152906 43.4884 -0.194886 40.3171 2.89358C37.1457 5.98204 37.0102 11.0634 40.0124 14.3194C43.0145 17.5754 48.0486 17.8067 51.3319 14.8396V15.6905C51.3474 17.1359 50.7761 18.5248 49.7506 19.5344C48.7577 20.5808 47.3754 21.1593 45.9398 21.1295C44.9021 21.1397 43.8848 20.8383 43.0174 20.2636C42.1325 19.6901 41.4355 18.8653 41.0143 17.893C40.8699 17.5672 40.6052 17.311 40.2765 17.179C39.9446 17.052 39.5765 17.0629 39.2525 17.2091C38.9263 17.3502 38.6708 17.6188 38.5446 17.9534C38.4108 18.2867 38.4216 18.6614 38.5745 18.9863C39.8571 21.935 42.7485 23.8382 45.9408 23.835C50.4058 23.8289 54.0239 20.1793 54.0299 15.6754V8.76193C54.0551 6.5891 53.1938 4.50134 51.648 2.98797ZM49.7346 12.6069C48.7361 13.6431 47.3562 14.2152 45.9238 14.1869C44.4946 14.192 43.1221 13.6225 42.1101 12.6045C41.098 11.5864 40.5297 10.2037 40.5308 8.76193C40.518 7.31264 41.0886 5.92011 42.1121 4.9029C43.11 3.86454 44.4904 3.29053 45.9238 3.31786C47.3556 3.31303 48.7302 3.88462 49.7426 4.90588C50.7551 5.92713 51.3217 7.31364 51.3169 8.75791C51.3418 10.2068 50.7687 11.6009 49.7346 12.6069Z" fill="#011627"/>
<path d="M70.3264 1.97054C70.3234 1.60667 70.4644 1.25664 70.7182 0.997992C70.9688 0.744252 71.3125 0.606612 71.6674 0.617822C72.0213 0.612196 72.3629 0.749001 72.6166 0.997992C72.8762 1.25272 73.0183 1.60538 73.0084 1.97054V8.76432C73.0084 13.2707 69.3868 16.9239 64.9193 16.9239C60.4518 16.9239 56.8301 13.2707 56.8301 8.76432V1.97255C56.8273 1.6087 56.9683 1.25871 57.222 1C57.4758 0.751108 57.8173 0.614319 58.1712 0.619834C58.5293 0.611783 58.875 0.751715 59.1283 1.00717C59.3815 1.26262 59.5202 1.61138 59.5122 1.97255V8.76432C59.5122 11.7688 61.9268 14.2044 64.9053 14.2044C67.8839 14.2044 70.2984 11.7688 70.2984 8.76432V1.97255L70.3264 1.97054Z" fill="#006CFF"/>
<path d="M92.0074 15.5388C92.0103 15.9027 91.8693 16.2527 91.6155 16.5113C91.2303 16.9032 90.6478 17.0198 90.1434 16.8059C89.6391 16.5921 89.3141 16.0906 89.3223 15.5388V8.76211C89.3223 5.75765 86.9077 3.32206 83.9292 3.32206C80.9507 3.32206 78.5361 5.75765 78.5361 8.76211V15.5388C78.5389 15.9026 78.3979 16.2526 78.1442 16.5113C77.8993 16.7752 77.5532 16.9193 77.195 16.9066C76.8393 16.9065 76.498 16.7644 76.2458 16.5113C75.9863 16.2566 75.8442 15.9039 75.854 15.5388V8.76211C75.854 4.2557 79.4756 0.602539 83.9431 0.602539C88.4107 0.602539 92.0323 4.2557 92.0323 8.76211V15.5388H92.0074Z" fill="#011627"/>
<path d="M108.318 1.97056C108.315 1.60668 108.456 1.25665 108.709 0.998005C108.96 0.744162 109.304 0.606504 109.659 0.617836C110.013 0.612209 110.354 0.749014 110.608 0.998005C110.867 1.25274 111.009 1.60539 111 1.97056V8.76433C111 13.2707 107.378 16.9239 102.911 16.9239C98.443 16.9239 94.8213 13.2707 94.8213 8.76433V1.97257C94.8185 1.60872 94.9596 1.25872 95.2132 1.00002C95.4669 0.751026 95.8085 0.614221 96.1624 0.619847C96.5205 0.611797 96.8662 0.751728 97.1195 1.00718C97.3727 1.26263 97.5114 1.6114 97.5035 1.97257V8.76433C97.5035 11.7688 99.918 14.2044 102.897 14.2044C105.875 14.2044 108.29 11.7688 108.29 8.76433V1.97257L108.318 1.97056Z" fill="#006CFF"/>
<path d="M64.9335 9.26525C66.1648 9.26525 67.1629 8.25841 67.1629 7.01641C67.1629 5.77442 66.1648 4.76758 64.9335 4.76758C63.7023 4.76758 62.7041 5.77442 62.7041 7.01641C62.7041 8.25841 63.7023 9.26525 64.9335 9.26525Z" fill="#006CFF"/>
<path d="M102.714 9.26525C103.945 9.26525 104.943 8.25841 104.943 7.01641C104.943 5.77442 103.945 4.76758 102.714 4.76758C101.483 4.76758 100.484 5.77442 100.484 7.01641C100.484 8.25841 101.483 9.26525 102.714 9.26525Z" fill="#006CFF"/>
<path d="M97.6665 24.822L96.6116 24.4881C96.4298 24.434 96.2775 24.3077 96.1899 24.1381C96.0842 23.9259 96.1001 23.6352 96.6116 23.3938C97.4851 22.9835 101.07 20.9167 101.583 20.613C101.635 20.5812 101.691 20.5556 101.748 20.5365C102.066 20.3969 102.436 20.5215 102.607 20.8252C102.707 21.0293 102.718 21.2664 102.637 21.4789L100.842 27.1462C100.842 27.1462 100.632 27.6934 100.21 27.5113C100.075 27.4618 99.9659 27.357 99.9109 27.2227L99.3127 26.1586L97.6665 24.822Z" fill="#006CFF"/>
<path d="M96.9454 24.0927C98.5876 24.0927 100.711 24.6096 99.6115 25.8396C93.9931 32.206 88.4943 34.4548 82.0922 34.3944C75.8487 34.2154 69.9359 31.5233 65.6726 26.9188C65.1572 26.3687 65.0165 25.5616 65.3148 24.8671C65.6132 24.1726 66.2932 23.7244 67.0436 23.7276H67.0885C67.5932 23.7293 68.0741 23.9441 68.4145 24.32C71.8345 27.9215 76.73 31.2596 82.5289 31.1268C89.6689 30.9749 93.5255 29.0147 97.9245 24.5774C98.2864 24.2123 96.4289 24.0917 96.9454 24.0917V24.0927Z" fill="#006CFF"/>
</svg>
